HIERARCHY
ROOT Hips
{
	OFFSET 0.000000 0.000000 0.000000 
	CHANNELS 6 Xposition Yposition Zposition Zrotation Yrotation Xrotation
	JOINT LeftUpLeg
	{
		OFFSET 1.363060 -1.794630 0.839290 
		CHANNELS 3 Zrotation Yrotation Xrotation
		JOINT LeftLeg
		{
			OFFSET 2.448110 -6.726130 0.000000 
			CHANNELS 3 Zrotation Yrotation Xrotation
			JOINT LeftFoot
			{
				OFFSET 2.562200 -7.039590 0.000000 
				CHANNELS 3 Zrotation Yrotation Xrotation
				JOINT LeftToeBase
				{
					OFFSET 0.157640 -0.433110 2.322550 
					CHANNELS 3 Zrotation Yrotation Xrotation
					End Site
					{
						OFFSET 0.000000 0.000000 0.000000 
					}
				}
			}
		}
	}
	JOINT RightUpLeg
	{
		OFFSET -1.305520 -1.794630 0.839290 
		CHANNELS 3 Zrotation Yrotation Xrotation
		JOINT RightLeg
		{
			OFFSET -2.542530 -6.985550 0.000000 
			CHANNELS 3 Zrotation Yrotation Xrotation
			JOINT RightFoot
			{
				OFFSET -2.568260 -7.056230 0.000000 
				CHANNELS 3 Zrotation Yrotation Xrotation
				JOINT RightToeBase
				{
					OFFSET -0.164730 -0.452590 2.363150 
					CHANNELS 3 Zrotation Yrotation Xrotation
					End Site
					{
						OFFSET 0.000000 0.000000 0.000000 
					}
				}
			}
		}
	}
	JOINT Spine
	{
		OFFSET 0.028270 2.035590 -0.193380 
		CHANNELS 3 Zrotation Yrotation Xrotation
		JOINT Spine1
		{
			OFFSET 0.056720 2.048850 -0.042750 
			CHANNELS 3 Zrotation Yrotation Xrotation
			JOINT Neck1
			{
				OFFSET -0.054170 1.746240 0.172020 
				CHANNELS 3 Zrotation Yrotation Xrotation
				JOINT Head
				{
					OFFSET 0.104070 1.761360 -0.123970 
					CHANNELS 3 Zrotation Yrotation Xrotation
					End Site
					{
						OFFSET 0.000000 0.000000 0.000000 
					}
				}
			}
			JOINT LeftArm
			{
				OFFSET 3.362410 1.200890 -0.311210 
				CHANNELS 3 Zrotation Yrotation Xrotation
				JOINT LeftForeArm
				{
					OFFSET 4.983000 -0.000000 -0.000000 
					CHANNELS 3 Zrotation Yrotation Xrotation
					JOINT LeftHand
					{
						OFFSET 3.483560 -0.000000 -0.000000 
						CHANNELS 3 Zrotation Yrotation Xrotation
						JOINT LeftHandIndex1
						{
							OFFSET 0.715260 -0.000000 -0.000000 
							CHANNELS 3 Zrotation Yrotation Xrotation
							End Site
							{
								OFFSET 0.000000 0.000000 0.000000 
							}
						}
					}
				}
			}
			JOINT RightArm
			{
				OFFSET -3.136600 1.374050 -0.404650 
				CHANNELS 3 Zrotation Yrotation Xrotation
				JOINT RightForeArm
				{
					OFFSET -5.241900 -0.000000 -0.000000 
					CHANNELS 3 Zrotation Yrotation Xrotation
					JOINT RightHand
					{
						OFFSET -3.444170 -0.000000 -0.000000 
						CHANNELS 3 Zrotation Yrotation Xrotation
						JOINT RightHandIndex1
						{
							OFFSET -0.622530 -0.000000 -0.000000 
							CHANNELS 3 Zrotation Yrotation Xrotation
							End Site
							{
								OFFSET 0.000000 0.000000 0.000000 
							}
						}
					}
				}
			}
		}
	}
}
MOTION
Frames: 6
Frame Time: 0.041667
0.650722 18.192275 -1.176072 -2.507042 -54.195708 13.486701 -5.463357 -22.740816 -32.876541 10.917950 15.885245 61.987137 1.850687 -11.351636 8.745563 1.093100 -6.644000 -18.664900 15.397097 10.031169 -25.348948 -3.163031 -10.259553 35.239709 -1.263906 1.199112 5.053611 -0.542700 4.720000 -13.111700 4.950371 6.124185 6.612278 0.014152 3.419557 -3.791764 -8.892619 29.584104 25.709628 -0.575600 12.524000 12.320300 -87.802942 14.606965 23.301571 25.387859 -33.514488 -7.616192 0.051530 0.051451 -13.478025 -7.125000 0.000000 0.000000 70.571074 9.614107 19.885309 -27.794792 36.161793 -9.935488 0.366683 -0.058263 -12.974135 7.125000 0.000000 0.000000 
0.763070 18.215639 -1.216139 -2.906146 -54.538654 13.717080 -5.263705 -22.411586 -31.793876 10.958428 15.916040 62.222593 1.918271 -12.275046 9.946306 1.331600 -7.307400 -20.629200 15.362269 10.354447 -25.362853 -3.060647 -10.134759 34.819187 -1.226076 1.108976 5.701139 -0.561800 4.800800 -13.341300 5.216941 6.164035 6.716279 0.013527 3.447682 -3.733940 -8.882639 29.614281 25.775550 -0.549700 12.521800 12.370200 -87.829121 14.955279 23.515577 25.386738 -33.506840 -7.617772 0.049225 0.053943 -13.604108 -7.125000 0.000000 0.000000 70.477847 9.572253 20.009219 -27.952661 36.309985 -10.036513 0.366080 -0.054342 -13.058256 7.125000 0.000000 0.000000 
0.878002 18.235921 -1.253920 -3.145192 -54.819393 13.891545 -5.141373 -22.153952 -30.788500 10.937796 15.915834 62.304378 1.949401 -13.043279 12.044367 1.055700 -6.533100 -18.339300 15.267420 10.555604 -25.513510 -2.964982 -10.029917 34.443522 -1.235888 1.144673 6.357895 -0.553200 4.764300 -13.237700 5.236217 6.158597 6.762859 -0.027663 3.442823 -3.645680 -8.989996 29.612875 25.684434 -0.602200 12.527600 12.366900 -87.785559 15.333825 23.858517 25.383303 -33.499254 -7.620040 0.052965 0.062212 -14.451960 -7.125000 0.000000 0.000000 70.511599 9.529547 20.107083 -28.090521 36.434580 -10.123121 0.364843 -0.050920 -13.177559 7.125000 0.000000 0.000000 
0.993134 18.255110 -1.291104 -3.325742 -54.941987 14.068829 -5.102770 -21.857457 -29.823924 10.870961 15.895450 62.235067 1.987312 -13.787287 13.916529 0.864500 -5.928700 -16.577600 15.172442 10.623539 -25.759080 -2.873272 -9.939849 34.104979 -1.302180 1.337530 6.958978 -0.461200 4.356100 -12.080800 5.243767 6.150022 6.717195 -0.108384 3.431753 -3.540311 -9.047072 29.494065 25.546009 -0.667100 12.490300 12.293600 -87.873412 15.792687 23.801390 25.478405 -33.590867 -7.673257 0.054294 0.062981 -14.277775 -7.125000 0.000000 0.000000 70.572931 9.414596 19.863198 -28.139235 36.477574 -10.153535 0.354995 -0.054505 -13.040569 7.125000 0.000000 0.000000 
1.106774 18.269029 -1.325305 -3.409802 -55.004322 14.085708 -5.158987 -21.608751 -28.722161 10.757536 15.841581 62.014257 2.043490 -14.802718 15.401761 0.915900 -6.098000 -17.068900 15.034916 10.621703 -25.961178 -2.793753 -9.869464 33.804552 -1.306281 1.330230 7.507529 -0.407700 4.098800 -11.354800 5.464564 6.064875 6.686251 -0.076634 3.391970 -3.492121 -8.912058 29.381936 25.587729 -0.638000 12.441100 12.249400 -88.218887 16.285914 23.248265 25.574543 -33.675094 -7.720435 0.057228 0.055816 -13.151959 -7.125000 0.000000 0.000000 70.521764 9.204243 19.822963 -28.250275 36.584824 -10.226097 0.349888 -0.051845 -13.000622 7.125000 0.000000 0.000000 
1.222303 18.277878 -1.356623 -3.347627 -55.086887 13.910150 -5.269604 -21.422264 -27.486276 10.573449 15.751555 61.612569 2.086559 -15.598854 17.940013 0.579100 -4.872800 -13.546300 14.812470 10.519448 -26.122030 -2.704017 -9.797861 33.469802 -1.313155 1.312239 8.015554 -0.434300 4.229100 -11.722000 5.640615 5.906452 6.726198 -0.005254 3.315832 -3.505030 -8.726355 29.401313 25.782944 -0.556800 12.441200 12.294500 -88.437397 16.670136 23.116265 25.617193 -33.711040 -7.743856 0.059202 0.054605 -13.136080 -7.125000 0.000000 0.000000 70.479790 9.079263 20.002088 -28.338783 36.673202 -10.286579 0.349697 -0.054168 -13.032207 7.125000 0.000000 0.000000 
